# xmcd CD database file
#
# Track frame offsets:
#	150
#	19237
#	34006
#	51721
#	67815
#	87557
#	103482
#	117139
#	129183
#	144065
#	157440
#	170937
#	187129
#	199971
#	215038
#	225047
#
# Disc length: 3273 seconds
#
# Revision: 3
# Processed by: cddbd v1.5.1PL0 Copyright (c) Steve Scherf et al.
# Submitted via: CDex 1.50
#
DISCID=f10cc710
DTITLE=Ray Charles - Ray Charles Collection - Volume 2
DYEAR=1900
DGENRE=Blues
TTITLE0=I Can't stop loving you
TTITLE1=You don't know me
TTITLE2=Ruby
TTITLE3=It makes no difference now
TTITLE4=That luky old sun
TTITLE5=Cry
TTITLE6=Let go get stoned
TTITLE7=Together again
TTITLE8=Here we go again
TTITLE9=Take these chains from my heart
TTITLE10=Eleanor Rigby
TTITLE11=I love you so much it hurts
TTITLE12=Making believe
TTITLE13=Smack dab in the middle
TTITLE14=Hey good looking
TTITLE15=What'd did i say ( Live )
EXTD=
EXTT0=
EXTT1=
EXTT2=
EXTT3=
EXTT4=
EXTT5=
EXTT6=
EXTT7=
EXTT8=
EXTT9=
EXTT10=
EXTT11=
EXTT12=
EXTT13=
EXTT14=
EXTT15=
PLAYORDER=
